v -1.000000 1.000000 1.000000
v -1.000000 1.000000 -1.000000
v -1.000000 -1.000000 -1.000000
v -1.000000 -1.000000 1.000000
v 1.000000 1.000000 -1.000000
v 1.000000 -1.000000 -1.000000
v 1.000000 1.000000 1.000000
v 1.000000 -1.000000 1.000000
vn -0.816497 0.408248 0.408248
vn -0.333333 0.666667 -0.666667
vn -0.816497 -0.408248 -0.408248
vn -0.333333 -0.666667 0.666667
vn 0.816497 0.408248 -0.408248
vn 0.333333 -0.666667 -0.666667
vn 0.333333 0.666667 0.666667
vn 0.816497 -0.408248 0.408248
vt 0.000000 0.000000
vt 1.000000 0.000000
vt 1.000000 1.000000
vt 0.000000 1.000000
f 1/1/1 2/2/2 3/3/3
f 1/1/1 3/3/3 4/4/4
f 2/1/2 5/2/5 6/3/6
f 2/1/2 6/3/6 3/4/3
f 5/1/5 7/2/7 8/3/8
f 5/1/5 8/3/8 6/4/6
f 7/1/7 1/2/1 4/3/4
f 7/1/7 4/3/4 8/4/8
f 4/1/4 3/2/3 6/3/6
f 4/1/4 6/3/6 8/4/8
f 7/1/7 5/2/5 2/3/2
f 7/1/7 2/3/2 1/4/1
