# This file uses centimeters as units for non-parametric coordinates.

mtllib test_pyramid.mtl
g default
v -0.500000 -0.353553 -0.500000
v -0.500000 -0.353553 0.500000
v 0.500000 -0.353553 0.500000
v 0.500000 -0.353553 -0.500000
v 0.000000 0.353553 0.000000
v -0.500000 -0.353553 -0.500000
v -0.500000 -0.353553 0.500000
v -0.500000 -0.353553 0.500000
v 0.500000 -0.353553 0.500000
v 0.000000 0.353553 0.000000
v 0.500000 -0.353553 0.500000
v 0.500000 -0.353553 -0.500000
v 0.000000 0.353553 0.000000
v 0.500000 -0.353553 -0.500000
v -0.500000 -0.353553 -0.500000
v 0.000000 0.353553 0.000000
vt 0.666003 0.666003
vt 0.333997 0.666003
vt 0.333997 0.333997
vt 0.666003 0.333997
vt 0.998008 0.500000
vt 0.500000 0.001992
vt 0.001992 0.499899
vt 0.500000 0.998008
vt 0.666003 0.666003
vt 0.666003 0.333997
vt 0.666003 0.333997
vt 0.333997 0.333997
vt 0.333997 0.333997
vt 0.333997 0.666003
vt 0.333997 0.666003
vt 0.666003 0.666003
vn 0.000000 -1.000000 0.000000
vn 0.000000 -1.000000 0.000000
vn 0.000000 -1.000000 0.000000
vn 0.000000 -1.000000 0.000000
vn -0.816497 0.577350 0.000000
vn -0.816497 0.577350 0.000000
vn -0.816497 0.577350 0.000000
vn 0.000000 0.577350 0.816497
vn 0.000000 0.577350 0.816497
vn 0.000000 0.577350 0.816497
vn 0.816497 0.577350 0.000000
vn 0.816497 0.577350 0.000000
vn 0.816497 0.577350 0.000000
vn -0.000000 0.577350 -0.816497
vn -0.000000 0.577350 -0.816497
vn -0.000000 0.577350 -0.816497
s 1
g test_pyramid1:Mesh
usemtl initialShadingGroup
f 1/1/1 4/2/2 2/4/3
f 2/4/3 4/2/2 3/3/4
s off
f 6/9/5 7/10/6 5/5/7
f 8/11/8 9/12/9 10/6/10
f 11/13/11 12/14/12 13/7/13
f 14/15/14 15/16/15 16/8/16
g default
v -0.500000 -0.353553 -0.500000
v -0.500000 -0.353553 0.500000
v 0.500000 -0.353553 0.500000
v 0.500000 -0.353553 -0.500000
v 0.000000 0.353553 0.000000
v -0.500000 -0.353553 -0.500000
v -0.500000 -0.353553 0.500000
v -0.500000 -0.353553 0.500000
v 0.500000 -0.353553 0.500000
v 0.000000 0.353553 0.000000
v 0.500000 -0.353553 0.500000
v 0.500000 -0.353553 -0.500000
v 0.000000 0.353553 0.000000
v 0.500000 -0.353553 -0.500000
v -0.500000 -0.353553 -0.500000
v 0.000000 0.353553 0.000000
vt 0.666003 0.666003
vt 0.333997 0.666003
vt 0.333997 0.333997
vt 0.666003 0.333997
vt 0.998008 0.500000
vt 0.500000 0.001992
vt 0.001992 0.499899
vt 0.500000 0.998008
vt 0.666003 0.666003
vt 0.666003 0.333997
vt 0.666003 0.333997
vt 0.333997 0.333997
vt 0.333997 0.333997
vt 0.333997 0.666003
vt 0.333997 0.666003
vt 0.666003 0.666003
vn 0.000000 -1.000000 0.000000
vn 0.000000 -1.000000 0.000000
vn 0.000000 -1.000000 0.000000
vn 0.000000 -1.000000 0.000000
vn -0.816497 0.577350 0.000000
vn -0.816497 0.577350 0.000000
vn -0.816497 0.577350 0.000000
vn 0.000000 0.577350 0.816497
vn 0.000000 0.577350 0.816497
vn 0.000000 0.577350 0.816497
vn 0.816497 0.577350 0.000000
vn 0.816497 0.577350 0.000000
vn 0.816497 0.577350 0.000000
vn -0.000000 0.577350 -0.816497
vn -0.000000 0.577350 -0.816497
vn -0.000000 0.577350 -0.816497
s 1
g test_pyramid1:Mesh
f 17/17/17 20/18/18 18/20/19
f 18/20/19 20/18/18 19/19/20
s off
f 22/25/21 23/26/22 21/21/23
f 24/27/24 25/28/25 26/22/26
f 27/29/27 28/30/28 29/23/29
f 30/31/30 31/32/31 32/24/32
